[Header]
# KeyWord<space>Value<CR>FileType htr
DataType HTRS
FileVersion 1.0
NumSegments 32
NumFrames 4
DataFrameRate 24
EulerRotationOrder XYZ
CalibrationUnits m
RotationUnits Degrees
GlobalAxisofGravity Z
BoneLengthAxis Z
ScaleFactor 1.0
[SegmentNames&Hierarchy]
# ObjectName<tab>ParentObjectName<CR>
pelvis	GLOBAL
spine01	pelvis
spine02	spine01
spine03	spine02
neck	spine03
head	neck
Collar_left	spine03
shoulder_up_left	Collar_left
bicep_up_left	shoulder_up_left
forearm_up_left	bicep_up_left
hand_up_left	forearm_up_left
shoulder_down_left	Collar_left
bicep_down_left	shoulder_down_left
forearm_down_left	bicep_down_left
hand_down_left	forearm_down_left
Collar_right	spine03
shoulder_up_right	Collar_right
bicep_up_right	shoulder_up_right
forearm_up_right	bicep_up_right
hand_up_right	forearm_up_right
shoulder_down_right	Collar_right
bicep_down_right	shoulder_down_right
forearm_down_right	bicep_down_right
hand_down_right	forearm_down_right
hip_left	pelvis
thigh_left	hip_left
shin_left	thigh_left
foot_left	shin_left
hip_right	pelvis
thigh_right	hip_right
shin_right	thigh_right
foot_right	shin_right
[BasePosition]
# ObjectName<tab>Tx<tab>Ty<tab>Tz<tab>Rx<tab>Ry<tab>Rz<tab>BoneLength<CR>
pelvis	0.000000	-0.438872	6.292980	90.000003	-0.000000	0.000000	1.677268
spine01	0.000000	1.677268	0.000000	0.000000	-0.000000	0.000000	2.370449
spine02	0.000000	2.370449	0.000000	0.000000	-0.000000	0.000000	2.680865
spine03	0.000000	2.680865	0.000000	0.000000	-0.000000	0.000000	3.160599
neck	0.000000	3.160599	0.000000	0.000000	-0.000000	0.000000	1.269882
head	0.000000	1.269882	0.000000	0.000000	0.000014	0.000000	4.176504
Collar_left	0.000000	3.160599	0.000000	21.069689	1.138138	109.250822	2.543778
shoulder_up_left	0.000001	2.543777	0.000000	-20.742461	-3.950507	-7.147224	2.341869
bicep_up_left	-0.000001	2.341868	0.000000	4.293160	0.027559	-5.998107	4.071239
forearm_up_left	0.000000	4.071239	-0.000000	-8.968416	-0.165229	-2.037328	3.736216
hand_up_left	0.000000	3.736216	0.000000	-0.780378	-0.284650	4.522557	2.141806
shoulder_down_left	0.000001	2.543777	0.000000	-11.374732	11.433438	33.097546	3.448410
bicep_down_left	-0.000001	3.448409	-0.000000	-0.711867	-1.315530	-6.783924	3.064684
forearm_down_left	0.000001	3.064684	0.000000	-17.686662	0.165761	1.581994	3.587720
hand_down_left	0.000000	3.587720	0.000000	11.694505	-0.524996	2.534701	2.862190
Collar_right	0.000000	3.160599	0.000000	21.069689	-1.138138	-109.250822	2.543778
shoulder_up_right	-0.000001	2.543777	0.000000	-20.742461	3.950507	7.147224	2.341869
bicep_up_right	0.000001	2.341868	0.000000	4.293160	-0.027559	5.998107	4.071239
forearm_up_right	0.000000	4.071239	-0.000000	-8.968416	0.165229	2.037328	3.736216
hand_up_right	0.000000	3.736216	0.000000	-0.780378	0.284650	-4.522557	2.141806
shoulder_down_right	-0.000001	2.543777	0.000000	-11.374732	-11.433438	-33.097546	3.448410
bicep_down_right	0.000001	3.448409	-0.000000	-0.711867	1.315530	6.783924	3.064684
forearm_down_right	-0.000001	3.064684	0.000000	-17.686662	-0.165761	-1.581994	3.587720
hand_down_right	0.000000	3.587720	0.000000	11.694505	0.524996	-2.534701	2.862190
hip_left	0.000000	-0.000003	0.000000	-96.241914	89.999996	0.000000	2.616231
thigh_left	0.000000	2.616231	0.000000	-73.061577	0.000001	0.000006	2.153898
shin_left	0.000000	2.153898	0.000000	-11.660560	0.342853	1.646302	2.782515
foot_left	0.000000	2.782514	0.000000	0.241543	0.154340	-77.422202	3.370008
hip_right	0.000000	-0.000003	0.000000	-96.241914	-89.999996	0.000000	2.616231
thigh_right	-0.000000	2.616231	0.000000	-73.061577	-0.000001	-0.000006	2.153898
shin_right	0.000000	2.153898	0.000000	-11.660560	-0.342853	-1.646302	2.782515
foot_right	-0.000000	2.782514	0.000000	0.241543	-0.154340	77.422202	3.370008
[pelvis]
# Tx<tab>Ty<tab>Tz<tab>Rx<tab>Ry<tab>Rz<tab>BoneScaleFactor<CR>
19	0.000000	0.000000	0.000000	0.000000	-0.000000	0.000000	1.000000
20	0.000000	0.000000	0.000000	0.000000	-0.000000	0.000000	1.000000
21	0.000000	0.000000	0.000000	0.000000	-0.000000	0.000000	1.000000
22	0.000000	0.000000	0.000000	0.000000	-0.000000	0.000000	1.000000
[spine01]
# Tx<tab>Ty<tab>Tz<tab>Rx<tab>Ry<tab>Rz<tab>BoneScaleFactor<CR>
19	0.000000	0.000000	0.000000	-11.702474	-0.000000	0.000000	1.000000
20	0.000000	0.000000	0.000000	-12.527540	-0.000000	0.000000	1.000000
21	0.000000	0.000000	0.000000	-13.314364	-0.000000	0.000000	1.000000
22	0.000000	0.000000	0.000000	-14.054443	-0.000000	0.000000	1.000000
[spine02]
# Tx<tab>Ty<tab>Tz<tab>Rx<tab>Ry<tab>Rz<tab>BoneScaleFactor<CR>
19	0.000000	0.000000	0.000000	-9.369628	-0.000000	0.000000	1.000000
20	0.000000	0.000000	0.000000	-10.030220	-0.000000	0.000000	1.000000
21	0.000000	0.000000	0.000000	-10.660193	-0.000000	0.000000	1.000000
22	0.000000	0.000000	0.000000	-11.252740	-0.000000	0.000000	1.000000
[spine03]
# Tx<tab>Ty<tab>Tz<tab>Rx<tab>Ry<tab>Rz<tab>BoneScaleFactor<CR>
19	0.000000	0.000000	0.000000	-11.092588	-0.000000	0.000000	1.000000
20	0.000000	0.000000	0.000000	-11.874654	-0.000000	0.000000	1.000000
21	0.000000	0.000000	0.000000	-12.620469	-0.000000	0.000000	1.000000
22	0.000000	0.000000	0.000000	-13.321979	-0.000000	0.000000	1.000000
[neck]
# Tx<tab>Ty<tab>Tz<tab>Rx<tab>Ry<tab>Rz<tab>BoneScaleFactor<CR>
19	0.000000	0.000000	0.000000	0.000000	-0.000000	0.000000	1.000000
20	0.000000	0.000000	0.000000	0.000000	-0.000000	0.000000	1.000000
21	0.000000	0.000000	0.000000	0.000000	-0.000000	0.000000	1.000000
22	0.000000	0.000000	0.000000	0.000000	-0.000000	0.000000	1.000000
[head]
# Tx<tab>Ty<tab>Tz<tab>Rx<tab>Ry<tab>Rz<tab>BoneScaleFactor<CR>
19	0.000000	0.000000	0.000000	0.000000	-0.000000	0.000000	1.000000
20	0.000000	0.000000	0.000000	0.000000	-0.000000	0.000000	1.000000
21	0.000000	0.000000	0.000000	0.000000	-0.000000	0.000000	1.000000
22	0.000000	0.000000	0.000000	0.000000	-0.000000	0.000000	1.000000
[Collar_left]
# Tx<tab>Ty<tab>Tz<tab>Rx<tab>Ry<tab>Rz<tab>BoneScaleFactor<CR>
19	0.000000	0.000000	0.000000	0.000000	-0.000000	0.000000	1.000000
20	0.000000	0.000000	0.000000	0.000000	-0.000000	0.000000	1.000000
21	0.000000	0.000000	0.000000	0.000000	-0.000000	0.000000	1.000000
22	0.000000	0.000000	0.000000	0.000000	-0.000000	0.000000	1.000000
[shoulder_up_left]
# Tx<tab>Ty<tab>Tz<tab>Rx<tab>Ry<tab>Rz<tab>BoneScaleFactor<CR>
19	0.000000	0.000000	0.000000	-1.524343	-5.840888	-29.101845	1.000000
20	0.000000	0.000000	0.000000	-1.631815	-6.252692	-31.153627	1.000000
21	0.000000	0.000000	0.000000	-1.734305	-6.645407	-33.110312	1.000000
22	0.000000	0.000000	0.000000	-1.830706	-7.014793	-34.950744	1.000000
[bicep_up_left]
# Tx<tab>Ty<tab>Tz<tab>Rx<tab>Ry<tab>Rz<tab>BoneScaleFactor<CR>
19	0.000000	0.000000	0.000000	0.000000	-0.000000	0.000000	1.000000
20	0.000000	0.000000	0.000000	0.000000	-0.000000	0.000000	1.000000
21	0.000000	0.000000	0.000000	0.000000	-0.000000	0.000000	1.000000
22	0.000000	0.000000	0.000000	0.000000	-0.000000	0.000000	1.000000
[forearm_up_left]
# Tx<tab>Ty<tab>Tz<tab>Rx<tab>Ry<tab>Rz<tab>BoneScaleFactor<CR>
19	0.000000	0.000000	0.000000	-9.925351	-7.953798	-11.152090	1.000000
20	0.000000	0.000000	0.000000	-10.625123	-8.514568	-11.938350	1.000000
21	0.000000	0.000000	0.000000	-11.292458	-9.049347	-12.688168	1.000000
22	0.000000	0.000000	0.000000	-11.920150	-9.552355	-13.393441	1.000000
[hand_up_left]
# Tx<tab>Ty<tab>Tz<tab>Rx<tab>Ry<tab>Rz<tab>BoneScaleFactor<CR>
19	0.000000	0.000000	0.000000	0.618184	-26.226133	1.518906	1.000000
20	0.000000	0.000000	0.000000	0.661768	-28.075166	1.625994	1.000000
21	0.000000	0.000000	0.000000	0.703332	-29.838501	1.728119	1.000000
22	0.000000	0.000000	0.000000	0.742427	-31.497072	1.824176	1.000000
[shoulder_down_left]
# Tx<tab>Ty<tab>Tz<tab>Rx<tab>Ry<tab>Rz<tab>BoneScaleFactor<CR>
19	0.000000	0.000000	0.000000	0.000000	-0.000000	0.000000	1.000000
20	0.000000	0.000000	0.000000	0.000000	-0.000000	0.000000	1.000000
21	0.000000	0.000000	0.000000	0.000000	-0.000000	0.000000	1.000000
22	0.000000	0.000000	0.000000	0.000000	-0.000000	0.000000	1.000000
[bicep_down_left]
# Tx<tab>Ty<tab>Tz<tab>Rx<tab>Ry<tab>Rz<tab>BoneScaleFactor<CR>
19	0.000000	0.000000	0.000000	-11.822412	6.491092	-18.320799	1.000000
20	0.000000	0.000000	0.000000	-12.655936	6.948736	-19.612480	1.000000
21	0.000000	0.000000	0.000000	-13.450822	7.385169	-20.844288	1.000000
22	0.000000	0.000000	0.000000	-14.198487	7.795673	-22.002918	1.000000
[forearm_down_left]
# Tx<tab>Ty<tab>Tz<tab>Rx<tab>Ry<tab>Rz<tab>BoneScaleFactor<CR>
19	0.000000	0.000000	0.000000	-12.962118	12.267126	-16.332903	1.000000
20	0.000000	0.000000	0.000000	-13.875995	13.132003	-17.484432	1.000000
21	0.000000	0.000000	0.000000	-14.747512	13.956789	-18.582581	1.000000
22	0.000000	0.000000	0.000000	-15.567251	14.732580	-19.615497	1.000000
[hand_down_left]
# Tx<tab>Ty<tab>Tz<tab>Rx<tab>Ry<tab>Rz<tab>BoneScaleFactor<CR>
19	0.000000	0.000000	0.000000	0.000000	-0.000000	0.000000	1.000000
20	0.000000	0.000000	0.000000	0.000000	-0.000000	0.000000	1.000000
21	0.000000	0.000000	0.000000	0.000000	-0.000000	0.000000	1.000000
22	0.000000	0.000000	0.000000	0.000000	-0.000000	0.000000	1.000000
[Collar_right]
# Tx<tab>Ty<tab>Tz<tab>Rx<tab>Ry<tab>Rz<tab>BoneScaleFactor<CR>
19	0.000000	0.000000	0.000000	0.000000	-0.000000	0.000000	1.000000
20	0.000000	0.000000	0.000000	0.000000	-0.000000	0.000000	1.000000
21	0.000000	0.000000	0.000000	0.000000	-0.000000	0.000000	1.000000
22	0.000000	0.000000	0.000000	0.000000	-0.000000	0.000000	1.000000
[shoulder_up_right]
# Tx<tab>Ty<tab>Tz<tab>Rx<tab>Ry<tab>Rz<tab>BoneScaleFactor<CR>
19	0.000000	0.000000	0.000000	1.709375	4.746209	27.548818	1.000000
20	0.000000	0.000000	0.000000	1.829892	5.080833	29.491107	1.000000
21	0.000000	0.000000	0.000000	1.944823	5.399947	31.343369	1.000000
22	0.000000	0.000000	0.000000	2.052926	5.700104	33.085593	1.000000
[bicep_up_right]
# Tx<tab>Ty<tab>Tz<tab>Rx<tab>Ry<tab>Rz<tab>BoneScaleFactor<CR>
19	0.000000	0.000000	0.000000	0.000000	-0.000000	0.000000	1.000000
20	0.000000	0.000000	0.000000	0.000000	-0.000000	0.000000	1.000000
21	0.000000	0.000000	0.000000	0.000000	-0.000000	0.000000	1.000000
22	0.000000	0.000000	0.000000	0.000000	-0.000000	0.000000	1.000000
[forearm_up_right]
# Tx<tab>Ty<tab>Tz<tab>Rx<tab>Ry<tab>Rz<tab>BoneScaleFactor<CR>
19	0.000000	0.000000	0.000000	-13.435035	13.067482	15.359729	1.000000
20	0.000000	0.000000	0.000000	-14.382252	13.988786	16.442642	1.000000
21	0.000000	0.000000	0.000000	-15.285564	14.867385	17.475362	1.000000
22	0.000000	0.000000	0.000000	-16.135214	15.693789	18.446734	1.000000
[hand_up_right]
# Tx<tab>Ty<tab>Tz<tab>Rx<tab>Ry<tab>Rz<tab>BoneScaleFactor<CR>
19	0.000000	0.000000	0.000000	-6.182789	26.693843	-5.360491	1.000000
20	0.000000	0.000000	0.000000	-6.618698	28.575852	-5.738425	1.000000
21	0.000000	0.000000	0.000000	-7.034402	30.370631	-6.098840	1.000000
22	0.000000	0.000000	0.000000	-7.425408	32.058784	-6.437845	1.000000
[shoulder_down_right]
# Tx<tab>Ty<tab>Tz<tab>Rx<tab>Ry<tab>Rz<tab>BoneScaleFactor<CR>
19	0.000000	0.000000	0.000000	0.000000	-0.000000	0.000000	1.000000
20	0.000000	0.000000	0.000000	0.000000	-0.000000	0.000000	1.000000
21	0.000000	0.000000	0.000000	0.000000	-0.000000	0.000000	1.000000
22	0.000000	0.000000	0.000000	0.000000	-0.000000	0.000000	1.000000
[bicep_down_right]
# Tx<tab>Ty<tab>Tz<tab>Rx<tab>Ry<tab>Rz<tab>BoneScaleFactor<CR>
19	0.000000	0.000000	0.000000	-14.867831	-7.121192	22.733801	1.000000
20	0.000000	0.000000	0.000000	-15.916067	-7.623261	24.336615	1.000000
21	0.000000	0.000000	0.000000	-16.915715	-8.102057	25.865136	1.000000
22	0.000000	0.000000	0.000000	-17.855974	-8.552412	27.302850	1.000000
[forearm_down_right]
# Tx<tab>Ty<tab>Tz<tab>Rx<tab>Ry<tab>Rz<tab>BoneScaleFactor<CR>
19	0.000000	0.000000	0.000000	-7.999246	-8.818555	10.347815	1.000000
20	0.000000	0.000000	0.000000	-8.563221	-9.440293	11.077372	1.000000
21	0.000000	0.000000	0.000000	-9.101055	-10.033212	11.773114	1.000000
22	0.000000	0.000000	0.000000	-9.606939	-10.590909	12.427523	1.000000
[hand_down_right]
# Tx<tab>Ty<tab>Tz<tab>Rx<tab>Ry<tab>Rz<tab>BoneScaleFactor<CR>
19	0.000000	0.000000	0.000000	0.000000	-0.000000	0.000000	1.000000
20	0.000000	0.000000	0.000000	0.000000	-0.000000	0.000000	1.000000
21	0.000000	0.000000	0.000000	0.000000	-0.000000	0.000000	1.000000
22	0.000000	0.000000	0.000000	0.000000	-0.000000	0.000000	1.000000
[hip_left]
# Tx<tab>Ty<tab>Tz<tab>Rx<tab>Ry<tab>Rz<tab>BoneScaleFactor<CR>
19	0.000000	0.000000	0.000000	0.000000	-0.000000	0.000000	1.000000
20	0.000000	0.000000	0.000000	0.000000	-0.000000	0.000000	1.000000
21	0.000000	0.000000	0.000000	0.000000	-0.000000	0.000000	1.000000
22	0.000000	0.000000	0.000000	0.000000	-0.000000	0.000000	1.000000
[thigh_left]
# Tx<tab>Ty<tab>Tz<tab>Rx<tab>Ry<tab>Rz<tab>BoneScaleFactor<CR>
19	0.000000	0.000000	0.000000	0.000000	-0.000000	0.000000	1.000000
20	0.000000	0.000000	0.000000	0.000000	-0.000000	0.000000	1.000000
21	0.000000	0.000000	0.000000	0.000000	-0.000000	0.000000	1.000000
22	0.000000	0.000000	0.000000	0.000000	-0.000000	0.000000	1.000000
[shin_left]
# Tx<tab>Ty<tab>Tz<tab>Rx<tab>Ry<tab>Rz<tab>BoneScaleFactor<CR>
19	0.000000	0.000000	0.000000	0.000000	-0.000000	0.000000	1.000000
20	0.000000	0.000000	0.000000	0.000000	-0.000000	0.000000	1.000000
21	0.000000	0.000000	0.000000	0.000000	-0.000000	0.000000	1.000000
22	0.000000	0.000000	0.000000	0.000000	-0.000000	0.000000	1.000000
[foot_left]
# Tx<tab>Ty<tab>Tz<tab>Rx<tab>Ry<tab>Rz<tab>BoneScaleFactor<CR>
19	0.000000	0.000000	0.000000	0.000000	-0.000000	0.000000	1.000000
20	0.000000	0.000000	0.000000	0.000000	-0.000000	0.000000	1.000000
21	0.000000	0.000000	0.000000	0.000000	-0.000000	0.000000	1.000000
22	0.000000	0.000000	0.000000	0.000000	-0.000000	0.000000	1.000000
[hip_right]
# Tx<tab>Ty<tab>Tz<tab>Rx<tab>Ry<tab>Rz<tab>BoneScaleFactor<CR>
19	0.000000	0.000000	0.000000	0.000000	-0.000000	0.000000	1.000000
20	0.000000	0.000000	0.000000	0.000000	-0.000000	0.000000	1.000000
21	0.000000	0.000000	0.000000	0.000000	-0.000000	0.000000	1.000000
22	0.000000	0.000000	0.000000	0.000000	-0.000000	0.000000	1.000000
[thigh_right]
# Tx<tab>Ty<tab>Tz<tab>Rx<tab>Ry<tab>Rz<tab>BoneScaleFactor<CR>
19	0.000000	0.000000	0.000000	0.000000	-0.000000	0.000000	1.000000
20	0.000000	0.000000	0.000000	0.000000	-0.000000	0.000000	1.000000
21	0.000000	0.000000	0.000000	0.000000	-0.000000	0.000000	1.000000
22	0.000000	0.000000	0.000000	0.000000	-0.000000	0.000000	1.000000
[shin_right]
# Tx<tab>Ty<tab>Tz<tab>Rx<tab>Ry<tab>Rz<tab>BoneScaleFactor<CR>
19	0.000000	0.000000	0.000000	0.000000	-0.000000	0.000000	1.000000
20	0.000000	0.000000	0.000000	0.000000	-0.000000	0.000000	1.000000
21	0.000000	0.000000	0.000000	0.000000	-0.000000	0.000000	1.000000
22	0.000000	0.000000	0.000000	0.000000	-0.000000	0.000000	1.000000
[foot_right]
# Tx<tab>Ty<tab>Tz<tab>Rx<tab>Ry<tab>Rz<tab>BoneScaleFactor<CR>
19	0.000000	0.000000	0.000000	0.000000	-0.000000	0.000000	1.000000
20	0.000000	0.000000	0.000000	0.000000	-0.000000	0.000000	1.000000
21	0.000000	0.000000	0.000000	0.000000	-0.000000	0.000000	1.000000
22	0.000000	0.000000	0.000000	0.000000	-0.000000	0.000000	1.000000
[EndOfFile]
